<svg width="55" height="55" viewBox="0 0 55 55" fill="none" xmlns="http://www.w3.org/2000/svg">
<path d="M27.5 1.16663C12.9508 1.16663 1.16667 12.9508 1.16667 27.5C1.16667 42.0491 12.9508 53.8333 27.5 53.8333C42.0492 53.8333 53.8333 42.0491 53.8333 27.5V24.2083H47.25C45.4396 24.2083 43.9583 22.727 43.9583 20.9166V17.625H37.375C35.5646 17.625 34.0833 16.1437 34.0833 14.3333V11.0416H30.7917C28.9813 11.0416 27.5 9.56038 27.5 7.74996V1.16663Z" stroke="#7F5AF0" stroke-width="2" stroke-linecap="round" stroke-linejoin="round"/>
<path d="M19.2708 17.625C21.9977 17.625 24.2083 15.4144 24.2083 12.6875C24.2083 9.96059 21.9977 7.75 19.2708 7.75C16.5439 7.75 14.3333 9.96059 14.3333 12.6875C14.3333 15.4144 16.5439 17.625 19.2708 17.625Z" fill="#7F5AF0"/>
<path d="M24.2083 50.5416C26.9352 50.5416 29.1458 48.331 29.1458 45.6041C29.1458 42.8772 26.9352 40.6666 24.2083 40.6666C21.4814 40.6666 19.2708 42.8772 19.2708 45.6041C19.2708 48.331 21.4814 50.5416 24.2083 50.5416Z" fill="#7F5AF0"/>
<path d="M9.39584 30.7916C12.1227 30.7916 14.3333 28.581 14.3333 25.8541C14.3333 23.1272 12.1227 20.9166 9.39584 20.9166C6.66893 20.9166 4.45834 23.1272 4.45834 25.8541C4.45834 28.581 6.66893 30.7916 9.39584 30.7916Z" fill="#7F5AF0"/>
<path d="M42.3125 40.6666C45.0394 40.6666 47.25 38.456 47.25 35.7291C47.25 33.0022 45.0394 30.7916 42.3125 30.7916C39.5856 30.7916 37.375 33.0022 37.375 35.7291C37.375 38.456 39.5856 40.6666 42.3125 40.6666Z" fill="#7F5AF0"/>
<path d="M25.8542 34.0834C28.5811 34.0834 30.7917 31.8728 30.7917 29.1459C30.7917 26.419 28.5811 24.2084 25.8542 24.2084C23.1273 24.2084 20.9167 26.419 20.9167 29.1459C20.9167 31.8728 23.1273 34.0834 25.8542 34.0834Z" fill="#7F5AF0"/>
</svg>
