<svg width="30" height="31" viewBox="0 0 30 31" fill="none" xmlns="http://www.w3.org/2000/svg">
<g clip-path="url(#clip0_57_23)">
<path d="M11.25 1.31302C11.4326 1.53565 11.5444 1.80778 11.5711 2.09445C11.5978 2.38111 11.5383 2.66922 11.4 2.92177C10.3154 4.9118 9.74923 7.14286 9.75375 9.40927C9.75375 16.9486 15.9 23.0536 23.475 23.0536C24.465 23.0524 25.4231 22.9524 26.3494 22.7536C26.6327 22.693 26.9276 22.7169 27.1976 22.8222C27.4675 22.9275 27.7007 23.1097 27.8681 23.3461C28.0453 23.5922 28.1357 23.8902 28.1252 24.1933C28.1146 24.4963 28.0038 24.7873 27.81 25.0205C26.3393 26.8269 24.4841 28.2823 22.3796 29.2807C20.2751 30.2791 17.9743 30.7953 15.645 30.7918C7.00125 30.7918 0 23.828 0 15.248C0 8.79052 3.96375 3.25177 9.6075 0.904268C9.88854 0.784831 10.2008 0.760116 10.4971 0.833858C10.7935 0.907601 11.0577 1.07579 11.25 1.31302Z" fill="#7F5AF0"/>
<path d="M20.2388 6.69413C20.2656 6.61293 20.3174 6.54227 20.3868 6.49219C20.4561 6.44211 20.5395 6.41515 20.625 6.41515C20.7105 6.41515 20.7939 6.44211 20.8632 6.49219C20.9326 6.54227 20.9844 6.61293 21.0113 6.69413L21.7369 8.87288C22.0613 9.84413 22.8225 10.6054 23.7938 10.9298L25.9725 11.6554C26.0537 11.6823 26.1244 11.7341 26.1744 11.8034C26.2245 11.8727 26.2515 11.9561 26.2515 12.0416C26.2515 12.1272 26.2245 12.2105 26.1744 12.2799C26.1244 12.3492 26.0537 12.401 25.9725 12.4279L23.7938 13.1535C23.3145 13.3126 22.8789 13.5814 22.5218 13.9384C22.1647 14.2955 21.896 14.7311 21.7369 15.2104L21.0113 17.3891C20.9844 17.4703 20.9326 17.541 20.8632 17.5911C20.7939 17.6411 20.7105 17.6681 20.625 17.6681C20.5395 17.6681 20.4561 17.6411 20.3868 17.5911C20.3174 17.541 20.2656 17.4703 20.2388 17.3891L19.5131 15.2104C19.3541 14.7311 19.0853 14.2955 18.7282 13.9384C18.3711 13.5814 17.9356 13.3126 17.4563 13.1535L15.2775 12.4279C15.1963 12.401 15.1257 12.3492 15.0756 12.2799C15.0255 12.2105 14.9985 12.1272 14.9985 12.0416C14.9985 11.9561 15.0255 11.8727 15.0756 11.8034C15.1257 11.7341 15.1963 11.6823 15.2775 11.6554L17.4563 10.9298C17.9356 10.7707 18.3711 10.5019 18.7282 10.1448C19.0853 9.78771 19.3541 9.35217 19.5131 8.87288L20.2388 6.69413ZM25.9931 0.977251C26.0116 0.923863 26.0463 0.877568 26.0924 0.844804C26.1384 0.81204 26.1935 0.794434 26.25 0.794434C26.3065 0.794434 26.3616 0.81204 26.4077 0.844804C26.4537 0.877568 26.4884 0.923863 26.5069 0.977251L26.9906 2.4285C27.2063 3.07725 27.7144 3.58538 28.3631 3.801L29.8144 4.28475C29.8678 4.30326 29.9141 4.33794 29.9468 4.38398C29.9796 4.43002 29.9972 4.48512 29.9972 4.54163C29.9972 4.59813 29.9796 4.65323 29.9468 4.69927C29.9141 4.74531 29.8678 4.77999 29.8144 4.7985L28.3631 5.28225C28.0437 5.38913 27.7535 5.56873 27.5153 5.80691C27.2771 6.04508 27.0975 6.33532 26.9906 6.65475L26.5069 8.106C26.4884 8.15939 26.4537 8.20568 26.4077 8.23845C26.3616 8.27121 26.3065 8.28882 26.25 8.28882C26.1935 8.28882 26.1384 8.27121 26.0924 8.23845C26.0463 8.20568 26.0116 8.15939 25.9931 8.106L25.5094 6.65475C25.4025 6.33532 25.2229 6.04508 24.9847 5.80691C24.7466 5.56873 24.4563 5.38913 24.1369 5.28225L22.6856 4.7985C22.6322 4.77999 22.586 4.74531 22.5532 4.69927C22.5204 4.65323 22.5028 4.59813 22.5028 4.54163C22.5028 4.48512 22.5204 4.43002 22.5532 4.38398C22.586 4.33794 22.6322 4.30326 22.6856 4.28475L24.1369 3.801C24.7856 3.58538 25.2938 3.07725 25.5094 2.4285L25.9931 0.977251Z" fill="#7F5AF0"/>
</g>
<defs>
<clipPath id="clip0_57_23">
<rect width="30" height="30" fill="white" transform="translate(0 0.791626)"/>
</clipPath>
</defs>
</svg>
